<svg xmlns="http://www.w3.org/2000/svg" xmlns:xlink="http://www.w3.org/1999/xlink" version="1.1" x="0px" y="0px" width="100px" height="100px" viewBox="0 0 100 100" enable-background="new 0 0 100 100" xml:space="preserve">
<g id="Layer_1">
	<path fill-rule="evenodd" clip-rule="evenodd" d="M89.566,58.152c3.67-0.166,7.338,2.911,8.579,7.464   c1.084,4.004-0.014,7.962-2.502,10.023C96.548,70.901,93.957,64.522,89.566,58.152L89.566,58.152z M68.272,9.385   c-2.024-6.258-4.491-8.521-7.185-8.714c0.374-0.189,0.764-0.346,1.175-0.454c4.075-1.107,8.516,2.15,9.907,7.256   c0.89,3.271,0.318,6.52-1.283,8.719C70.01,13.919,69.146,11.647,68.272,9.385L68.272,9.385z"/>
	<path fill-rule="evenodd" clip-rule="evenodd" d="M6.148,18.428c4.076-1.103,8.516,2.15,9.91,7.256   c1.386,5.106-0.796,10.146-4.872,11.248c-4.08,1.107-8.521-2.146-9.911-7.253C-0.115,24.568,2.072,19.53,6.148,18.428L6.148,18.428   z"/>
	<path fill-rule="evenodd" clip-rule="evenodd" d="M32.714,80.724c4.081-1.099,8.516,2.15,9.91,7.262   c1.392,5.105-0.795,10.145-4.872,11.246c-4.08,1.107-8.516-2.146-9.906-7.256C26.456,86.87,28.638,81.829,32.714,80.724   L32.714,80.724z"/>
	<path fill-rule="evenodd" clip-rule="evenodd" d="M9.584,16.309c7.536-0.99,10.906,14.833,13.088,21.954   c5.052,14.5,11.769,27.817,19.431,42.321c4.759,7.122,5.947,14.04,0.198,19.183c15.188-7.791,30.318-14.058,47.782-19.579   c4.106-4.706,1.392-13.05-4.359-21.359c-8.556-14.995-14.827-32.042-21.216-48.651c-2.688-8.314-6.159-9.579-9.916-8.305   L9.584,16.309L9.584,16.309z"/>
</g>
<g id="Layer_2">
</g>
</svg>